<mxfile host="app.diagrams.net" modified="2023-08-01T10:43:34.029Z" agent="Mozilla/5.0 (Windows NT 10.0; Win64; x64) AppleWebKit/537.36 (KHTML, like Gecko) Chrome/115.0.0.0 Safari/537.36" etag="AIkCgyIEjxGnl_mSBIno" version="21.6.6" type="github">
  <diagram id="C5RBs43oDa-KdzZeNtuy" name="Page-1">
    <mxGraphModel dx="2664" dy="892" grid="1" gridSize="10" guides="1" tooltips="1" connect="1" arrows="1" fold="1" page="1" pageScale="1" pageWidth="827" pageHeight="1169" math="0" shadow="0">
      <root>
        <mxCell id="WIyWlLk6GJQsqaUBKTNV-0" />
        <mxCell id="WIyWlLk6GJQsqaUBKTNV-1" parent="WIyWlLk6GJQsqaUBKTNV-0" />
        <mxCell id="-EJJUSHEmiEM0p1fvj_I-4" style="edgeStyle=orthogonalEdgeStyle;rounded=0;orthogonalLoop=1;jettySize=auto;html=1;exitX=0.5;exitY=1;exitDx=0;exitDy=0;" edge="1" parent="WIyWlLk6GJQsqaUBKTNV-1" source="-EJJUSHEmiEM0p1fvj_I-0">
          <mxGeometry relative="1" as="geometry">
            <mxPoint x="250" y="110" as="targetPoint" />
            <Array as="points">
              <mxPoint x="250" y="110" />
              <mxPoint x="250" y="110" />
            </Array>
          </mxGeometry>
        </mxCell>
        <mxCell id="-EJJUSHEmiEM0p1fvj_I-0" value="START" style="ellipse;whiteSpace=wrap;html=1;" vertex="1" parent="WIyWlLk6GJQsqaUBKTNV-1">
          <mxGeometry x="190" y="20" width="120" height="50" as="geometry" />
        </mxCell>
        <mxCell id="-EJJUSHEmiEM0p1fvj_I-5" style="edgeStyle=orthogonalEdgeStyle;rounded=0;orthogonalLoop=1;jettySize=auto;html=1;exitX=0.5;exitY=1;exitDx=0;exitDy=0;entryX=0.5;entryY=0;entryDx=0;entryDy=0;" edge="1" parent="WIyWlLk6GJQsqaUBKTNV-1" source="-EJJUSHEmiEM0p1fvj_I-1" target="-EJJUSHEmiEM0p1fvj_I-2">
          <mxGeometry relative="1" as="geometry" />
        </mxCell>
        <mxCell id="-EJJUSHEmiEM0p1fvj_I-1" value="1.LOG IN&lt;br&gt;2.REGISTER&lt;br&gt;" style="shape=parallelogram;perimeter=parallelogramPerimeter;whiteSpace=wrap;html=1;fixedSize=1;" vertex="1" parent="WIyWlLk6GJQsqaUBKTNV-1">
          <mxGeometry x="190" y="110" width="120" height="60" as="geometry" />
        </mxCell>
        <mxCell id="-EJJUSHEmiEM0p1fvj_I-6" style="edgeStyle=orthogonalEdgeStyle;rounded=0;orthogonalLoop=1;jettySize=auto;html=1;exitX=0.5;exitY=1;exitDx=0;exitDy=0;" edge="1" parent="WIyWlLk6GJQsqaUBKTNV-1" source="-EJJUSHEmiEM0p1fvj_I-2">
          <mxGeometry relative="1" as="geometry">
            <mxPoint x="250" y="320" as="targetPoint" />
          </mxGeometry>
        </mxCell>
        <mxCell id="-EJJUSHEmiEM0p1fvj_I-2" value="" style="rhombus;whiteSpace=wrap;html=1;" vertex="1" parent="WIyWlLk6GJQsqaUBKTNV-1">
          <mxGeometry x="220" y="220" width="60" height="60" as="geometry" />
        </mxCell>
        <mxCell id="-EJJUSHEmiEM0p1fvj_I-7" value="" style="endArrow=none;html=1;rounded=0;" edge="1" parent="WIyWlLk6GJQsqaUBKTNV-1">
          <mxGeometry width="50" height="50" relative="1" as="geometry">
            <mxPoint x="110" y="320" as="sourcePoint" />
            <mxPoint x="430" y="320" as="targetPoint" />
          </mxGeometry>
        </mxCell>
        <mxCell id="-EJJUSHEmiEM0p1fvj_I-22" style="edgeStyle=orthogonalEdgeStyle;rounded=0;orthogonalLoop=1;jettySize=auto;html=1;exitX=0.5;exitY=1;exitDx=0;exitDy=0;entryX=0.5;entryY=0;entryDx=0;entryDy=0;" edge="1" parent="WIyWlLk6GJQsqaUBKTNV-1" source="-EJJUSHEmiEM0p1fvj_I-8" target="-EJJUSHEmiEM0p1fvj_I-18">
          <mxGeometry relative="1" as="geometry" />
        </mxCell>
        <mxCell id="-EJJUSHEmiEM0p1fvj_I-8" value="ENTER PIN&amp;nbsp; NUMBER" style="shape=parallelogram;perimeter=parallelogramPerimeter;whiteSpace=wrap;html=1;fixedSize=1;" vertex="1" parent="WIyWlLk6GJQsqaUBKTNV-1">
          <mxGeometry x="50" y="370" width="120" height="60" as="geometry" />
        </mxCell>
        <mxCell id="-EJJUSHEmiEM0p1fvj_I-91" style="edgeStyle=orthogonalEdgeStyle;rounded=0;orthogonalLoop=1;jettySize=auto;html=1;exitX=0.5;exitY=1;exitDx=0;exitDy=0;entryX=0.5;entryY=0;entryDx=0;entryDy=0;" edge="1" parent="WIyWlLk6GJQsqaUBKTNV-1" source="-EJJUSHEmiEM0p1fvj_I-9" target="-EJJUSHEmiEM0p1fvj_I-34">
          <mxGeometry relative="1" as="geometry" />
        </mxCell>
        <mxCell id="-EJJUSHEmiEM0p1fvj_I-9" value="ENTER NAME&lt;br&gt;ENTER PIN&lt;br&gt;CONFIRM PIN&lt;br&gt;ENTER BRANCH" style="shape=parallelogram;perimeter=parallelogramPerimeter;whiteSpace=wrap;html=1;fixedSize=1;" vertex="1" parent="WIyWlLk6GJQsqaUBKTNV-1">
          <mxGeometry x="349" y="360" width="130" height="70" as="geometry" />
        </mxCell>
        <mxCell id="-EJJUSHEmiEM0p1fvj_I-15" value="1" style="endArrow=classic;html=1;rounded=0;" edge="1" parent="WIyWlLk6GJQsqaUBKTNV-1">
          <mxGeometry x="-1" y="-40" width="50" height="50" relative="1" as="geometry">
            <mxPoint x="110" y="360" as="sourcePoint" />
            <mxPoint x="110" y="370" as="targetPoint" />
            <Array as="points">
              <mxPoint x="110" y="320" />
            </Array>
            <mxPoint x="40" y="-40" as="offset" />
          </mxGeometry>
        </mxCell>
        <mxCell id="-EJJUSHEmiEM0p1fvj_I-17" value="2" style="edgeStyle=none;orthogonalLoop=1;jettySize=auto;html=1;rounded=0;" edge="1" parent="WIyWlLk6GJQsqaUBKTNV-1">
          <mxGeometry width="100" relative="1" as="geometry">
            <mxPoint x="430" y="320" as="sourcePoint" />
            <mxPoint x="430" y="360" as="targetPoint" />
            <Array as="points" />
          </mxGeometry>
        </mxCell>
        <mxCell id="-EJJUSHEmiEM0p1fvj_I-21" style="edgeStyle=orthogonalEdgeStyle;rounded=0;orthogonalLoop=1;jettySize=auto;html=1;exitX=0.5;exitY=1;exitDx=0;exitDy=0;entryX=0.5;entryY=0;entryDx=0;entryDy=0;" edge="1" parent="WIyWlLk6GJQsqaUBKTNV-1" source="-EJJUSHEmiEM0p1fvj_I-18" target="-EJJUSHEmiEM0p1fvj_I-19">
          <mxGeometry relative="1" as="geometry" />
        </mxCell>
        <mxCell id="-EJJUSHEmiEM0p1fvj_I-18" value="AUTHENTICATE" style="shape=process;whiteSpace=wrap;html=1;backgroundOutline=1;" vertex="1" parent="WIyWlLk6GJQsqaUBKTNV-1">
          <mxGeometry x="50" y="510" width="120" height="40" as="geometry" />
        </mxCell>
        <mxCell id="-EJJUSHEmiEM0p1fvj_I-24" value="incorrect" style="edgeStyle=orthogonalEdgeStyle;rounded=0;orthogonalLoop=1;jettySize=auto;html=1;exitX=0.5;exitY=1;exitDx=0;exitDy=0;entryX=0.5;entryY=0;entryDx=0;entryDy=0;" edge="1" parent="WIyWlLk6GJQsqaUBKTNV-1" source="-EJJUSHEmiEM0p1fvj_I-19" target="-EJJUSHEmiEM0p1fvj_I-23">
          <mxGeometry relative="1" as="geometry" />
        </mxCell>
        <mxCell id="-EJJUSHEmiEM0p1fvj_I-27" style="edgeStyle=orthogonalEdgeStyle;rounded=0;orthogonalLoop=1;jettySize=auto;html=1;exitX=1;exitY=0.5;exitDx=0;exitDy=0;entryX=0.605;entryY=0.006;entryDx=0;entryDy=0;entryPerimeter=0;" edge="1" parent="WIyWlLk6GJQsqaUBKTNV-1" source="-EJJUSHEmiEM0p1fvj_I-19" target="-EJJUSHEmiEM0p1fvj_I-25">
          <mxGeometry relative="1" as="geometry">
            <mxPoint x="332" y="670" as="targetPoint" />
          </mxGeometry>
        </mxCell>
        <mxCell id="-EJJUSHEmiEM0p1fvj_I-30" value="correct" style="edgeLabel;html=1;align=center;verticalAlign=middle;resizable=0;points=[];" vertex="1" connectable="0" parent="-EJJUSHEmiEM0p1fvj_I-27">
          <mxGeometry x="-0.5538" y="3" relative="1" as="geometry">
            <mxPoint as="offset" />
          </mxGeometry>
        </mxCell>
        <mxCell id="-EJJUSHEmiEM0p1fvj_I-19" value="" style="rhombus;whiteSpace=wrap;html=1;" vertex="1" parent="WIyWlLk6GJQsqaUBKTNV-1">
          <mxGeometry x="70" y="580" width="80" height="80" as="geometry" />
        </mxCell>
        <mxCell id="-EJJUSHEmiEM0p1fvj_I-23" value="INCORRECT PIN&lt;br&gt;RESET" style="shape=parallelogram;perimeter=parallelogramPerimeter;whiteSpace=wrap;html=1;fixedSize=1;" vertex="1" parent="WIyWlLk6GJQsqaUBKTNV-1">
          <mxGeometry x="50" y="720" width="120" height="60" as="geometry" />
        </mxCell>
        <mxCell id="-EJJUSHEmiEM0p1fvj_I-61" value="4" style="edgeStyle=orthogonalEdgeStyle;rounded=0;orthogonalLoop=1;jettySize=auto;html=1;exitX=1;exitY=0.5;exitDx=0;exitDy=0;" edge="1" parent="WIyWlLk6GJQsqaUBKTNV-1" source="-EJJUSHEmiEM0p1fvj_I-25">
          <mxGeometry relative="1" as="geometry">
            <mxPoint x="470" y="745" as="targetPoint" />
          </mxGeometry>
        </mxCell>
        <mxCell id="-EJJUSHEmiEM0p1fvj_I-72" value="1" style="edgeStyle=orthogonalEdgeStyle;rounded=0;orthogonalLoop=1;jettySize=auto;html=1;exitX=0;exitY=1;exitDx=0;exitDy=0;entryX=0.5;entryY=0;entryDx=0;entryDy=0;" edge="1" parent="WIyWlLk6GJQsqaUBKTNV-1" source="-EJJUSHEmiEM0p1fvj_I-25" target="-EJJUSHEmiEM0p1fvj_I-56">
          <mxGeometry relative="1" as="geometry" />
        </mxCell>
        <mxCell id="-EJJUSHEmiEM0p1fvj_I-112" value="2" style="edgeStyle=orthogonalEdgeStyle;rounded=0;orthogonalLoop=1;jettySize=auto;html=1;exitX=0.5;exitY=1;exitDx=0;exitDy=0;entryX=0.417;entryY=-0.05;entryDx=0;entryDy=0;entryPerimeter=0;" edge="1" parent="WIyWlLk6GJQsqaUBKTNV-1" source="-EJJUSHEmiEM0p1fvj_I-25" target="-EJJUSHEmiEM0p1fvj_I-57">
          <mxGeometry relative="1" as="geometry" />
        </mxCell>
        <mxCell id="-EJJUSHEmiEM0p1fvj_I-25" value="1.Account management&lt;br&gt;2.Bills&lt;br&gt;3.Transfer&lt;br&gt;4.Recharge&lt;br&gt;5.withdraw&lt;br&gt;6.loans&lt;br&gt;7.airtime&lt;br&gt;8.help&lt;br&gt;9.logout" style="shape=parallelogram;perimeter=parallelogramPerimeter;whiteSpace=wrap;html=1;fixedSize=1;" vertex="1" parent="WIyWlLk6GJQsqaUBKTNV-1">
          <mxGeometry x="210" y="680" width="190" height="130" as="geometry" />
        </mxCell>
        <mxCell id="-EJJUSHEmiEM0p1fvj_I-92" style="edgeStyle=orthogonalEdgeStyle;rounded=0;orthogonalLoop=1;jettySize=auto;html=1;exitX=0;exitY=0.5;exitDx=0;exitDy=0;" edge="1" parent="WIyWlLk6GJQsqaUBKTNV-1" source="-EJJUSHEmiEM0p1fvj_I-31">
          <mxGeometry relative="1" as="geometry">
            <mxPoint x="410" y="480" as="targetPoint" />
          </mxGeometry>
        </mxCell>
        <mxCell id="-EJJUSHEmiEM0p1fvj_I-31" value="CUSTOMER DETAILS" style="shape=process;whiteSpace=wrap;html=1;backgroundOutline=1;" vertex="1" parent="WIyWlLk6GJQsqaUBKTNV-1">
          <mxGeometry x="520" y="460" width="160" height="40" as="geometry" />
        </mxCell>
        <mxCell id="-EJJUSHEmiEM0p1fvj_I-42" style="edgeStyle=orthogonalEdgeStyle;rounded=0;orthogonalLoop=1;jettySize=auto;html=1;exitX=1;exitY=0.5;exitDx=0;exitDy=0;entryX=0.608;entryY=0.017;entryDx=0;entryDy=0;entryPerimeter=0;" edge="1" parent="WIyWlLk6GJQsqaUBKTNV-1" source="-EJJUSHEmiEM0p1fvj_I-34" target="-EJJUSHEmiEM0p1fvj_I-35">
          <mxGeometry relative="1" as="geometry" />
        </mxCell>
        <mxCell id="-EJJUSHEmiEM0p1fvj_I-34" value="" style="rhombus;whiteSpace=wrap;html=1;" vertex="1" parent="WIyWlLk6GJQsqaUBKTNV-1">
          <mxGeometry x="375" y="530" width="65" height="60" as="geometry" />
        </mxCell>
        <mxCell id="-EJJUSHEmiEM0p1fvj_I-35" value="A/C ALREADY EXISTS" style="shape=parallelogram;perimeter=parallelogramPerimeter;whiteSpace=wrap;html=1;fixedSize=1;" vertex="1" parent="WIyWlLk6GJQsqaUBKTNV-1">
          <mxGeometry x="530" y="610" width="120" height="60" as="geometry" />
        </mxCell>
        <mxCell id="-EJJUSHEmiEM0p1fvj_I-45" value="" style="endArrow=none;html=1;rounded=0;" edge="1" parent="WIyWlLk6GJQsqaUBKTNV-1">
          <mxGeometry width="50" height="50" relative="1" as="geometry">
            <mxPoint x="260" y="560" as="sourcePoint" />
            <mxPoint x="260" y="400" as="targetPoint" />
          </mxGeometry>
        </mxCell>
        <mxCell id="-EJJUSHEmiEM0p1fvj_I-47" value="" style="endArrow=none;html=1;rounded=0;entryX=0;entryY=0.5;entryDx=0;entryDy=0;" edge="1" parent="WIyWlLk6GJQsqaUBKTNV-1" target="-EJJUSHEmiEM0p1fvj_I-34">
          <mxGeometry width="50" height="50" relative="1" as="geometry">
            <mxPoint x="260" y="560" as="sourcePoint" />
            <mxPoint x="370" y="570" as="targetPoint" />
          </mxGeometry>
        </mxCell>
        <mxCell id="-EJJUSHEmiEM0p1fvj_I-55" value="" style="endArrow=classic;html=1;rounded=0;entryX=1;entryY=0.5;entryDx=0;entryDy=0;" edge="1" parent="WIyWlLk6GJQsqaUBKTNV-1" target="-EJJUSHEmiEM0p1fvj_I-8">
          <mxGeometry width="50" height="50" relative="1" as="geometry">
            <mxPoint x="260" y="400" as="sourcePoint" />
            <mxPoint x="240" y="450" as="targetPoint" />
            <Array as="points" />
          </mxGeometry>
        </mxCell>
        <mxCell id="-EJJUSHEmiEM0p1fvj_I-78" style="edgeStyle=orthogonalEdgeStyle;rounded=0;orthogonalLoop=1;jettySize=auto;html=1;exitX=0.5;exitY=1;exitDx=0;exitDy=0;entryX=0.5;entryY=0;entryDx=0;entryDy=0;" edge="1" parent="WIyWlLk6GJQsqaUBKTNV-1" source="-EJJUSHEmiEM0p1fvj_I-56" target="-EJJUSHEmiEM0p1fvj_I-74">
          <mxGeometry relative="1" as="geometry" />
        </mxCell>
        <mxCell id="-EJJUSHEmiEM0p1fvj_I-56" value="1.Transaction history&lt;br&gt;2.Check savings" style="shape=parallelogram;perimeter=parallelogramPerimeter;whiteSpace=wrap;html=1;fixedSize=1;" vertex="1" parent="WIyWlLk6GJQsqaUBKTNV-1">
          <mxGeometry x="10" y="860" width="140" height="40" as="geometry" />
        </mxCell>
        <mxCell id="-EJJUSHEmiEM0p1fvj_I-118" style="edgeStyle=orthogonalEdgeStyle;rounded=0;orthogonalLoop=1;jettySize=auto;html=1;exitX=0.5;exitY=1;exitDx=0;exitDy=0;entryX=0.375;entryY=-0.133;entryDx=0;entryDy=0;entryPerimeter=0;" edge="1" parent="WIyWlLk6GJQsqaUBKTNV-1" source="-EJJUSHEmiEM0p1fvj_I-57" target="-EJJUSHEmiEM0p1fvj_I-95">
          <mxGeometry relative="1" as="geometry" />
        </mxCell>
        <mxCell id="-EJJUSHEmiEM0p1fvj_I-57" value="Display bills&lt;br&gt;select bills to pay" style="shape=parallelogram;perimeter=parallelogramPerimeter;whiteSpace=wrap;html=1;fixedSize=1;" vertex="1" parent="WIyWlLk6GJQsqaUBKTNV-1">
          <mxGeometry x="255" y="860" width="120" height="60" as="geometry" />
        </mxCell>
        <mxCell id="-EJJUSHEmiEM0p1fvj_I-67" style="edgeStyle=orthogonalEdgeStyle;rounded=0;orthogonalLoop=1;jettySize=auto;html=1;exitX=0.5;exitY=1;exitDx=0;exitDy=0;entryX=0.583;entryY=-0.05;entryDx=0;entryDy=0;entryPerimeter=0;" edge="1" parent="WIyWlLk6GJQsqaUBKTNV-1" source="-EJJUSHEmiEM0p1fvj_I-58" target="-EJJUSHEmiEM0p1fvj_I-62">
          <mxGeometry relative="1" as="geometry" />
        </mxCell>
        <mxCell id="-EJJUSHEmiEM0p1fvj_I-58" value="Enter amount to deposit" style="shape=parallelogram;perimeter=parallelogramPerimeter;whiteSpace=wrap;html=1;fixedSize=1;" vertex="1" parent="WIyWlLk6GJQsqaUBKTNV-1">
          <mxGeometry x="460" y="720" width="120" height="60" as="geometry" />
        </mxCell>
        <mxCell id="-EJJUSHEmiEM0p1fvj_I-69" style="edgeStyle=orthogonalEdgeStyle;rounded=0;orthogonalLoop=1;jettySize=auto;html=1;exitX=0.5;exitY=1;exitDx=0;exitDy=0;" edge="1" parent="WIyWlLk6GJQsqaUBKTNV-1" source="-EJJUSHEmiEM0p1fvj_I-62">
          <mxGeometry relative="1" as="geometry">
            <mxPoint x="510" y="930" as="targetPoint" />
          </mxGeometry>
        </mxCell>
        <mxCell id="-EJJUSHEmiEM0p1fvj_I-62" value="increment a/c amt" style="rounded=0;whiteSpace=wrap;html=1;" vertex="1" parent="WIyWlLk6GJQsqaUBKTNV-1">
          <mxGeometry x="450" y="830" width="120" height="40" as="geometry" />
        </mxCell>
        <mxCell id="-EJJUSHEmiEM0p1fvj_I-63" value="Display a/c bal" style="shape=parallelogram;perimeter=parallelogramPerimeter;whiteSpace=wrap;html=1;fixedSize=1;" vertex="1" parent="WIyWlLk6GJQsqaUBKTNV-1">
          <mxGeometry x="460" y="930" width="120" height="60" as="geometry" />
        </mxCell>
        <mxCell id="-EJJUSHEmiEM0p1fvj_I-70" style="edgeStyle=orthogonalEdgeStyle;rounded=0;orthogonalLoop=1;jettySize=auto;html=1;exitX=0;exitY=0.5;exitDx=0;exitDy=0;" edge="1" parent="WIyWlLk6GJQsqaUBKTNV-1" source="-EJJUSHEmiEM0p1fvj_I-64">
          <mxGeometry relative="1" as="geometry">
            <mxPoint x="510" y="905" as="targetPoint" />
          </mxGeometry>
        </mxCell>
        <mxCell id="-EJJUSHEmiEM0p1fvj_I-64" value="A/c details" style="shape=process;whiteSpace=wrap;html=1;backgroundOutline=1;" vertex="1" parent="WIyWlLk6GJQsqaUBKTNV-1">
          <mxGeometry x="570" y="890" width="110" height="30" as="geometry" />
        </mxCell>
        <mxCell id="-EJJUSHEmiEM0p1fvj_I-71" style="edgeStyle=orthogonalEdgeStyle;rounded=0;orthogonalLoop=1;jettySize=auto;html=1;exitX=0;exitY=0.5;exitDx=0;exitDy=0;" edge="1" parent="WIyWlLk6GJQsqaUBKTNV-1" source="-EJJUSHEmiEM0p1fvj_I-65">
          <mxGeometry relative="1" as="geometry">
            <mxPoint x="520" y="805" as="targetPoint" />
          </mxGeometry>
        </mxCell>
        <mxCell id="-EJJUSHEmiEM0p1fvj_I-65" value="A/c details" style="shape=process;whiteSpace=wrap;html=1;backgroundOutline=1;" vertex="1" parent="WIyWlLk6GJQsqaUBKTNV-1">
          <mxGeometry x="560" y="790" width="120" height="30" as="geometry" />
        </mxCell>
        <mxCell id="-EJJUSHEmiEM0p1fvj_I-80" style="edgeStyle=orthogonalEdgeStyle;rounded=0;orthogonalLoop=1;jettySize=auto;html=1;exitX=1;exitY=0.5;exitDx=0;exitDy=0;entryX=0.5;entryY=0;entryDx=0;entryDy=0;" edge="1" parent="WIyWlLk6GJQsqaUBKTNV-1" source="-EJJUSHEmiEM0p1fvj_I-74" target="-EJJUSHEmiEM0p1fvj_I-76">
          <mxGeometry relative="1" as="geometry" />
        </mxCell>
        <mxCell id="-EJJUSHEmiEM0p1fvj_I-82" style="edgeStyle=orthogonalEdgeStyle;rounded=0;orthogonalLoop=1;jettySize=auto;html=1;exitX=0.5;exitY=1;exitDx=0;exitDy=0;entryX=0.558;entryY=0;entryDx=0;entryDy=0;entryPerimeter=0;" edge="1" parent="WIyWlLk6GJQsqaUBKTNV-1" source="-EJJUSHEmiEM0p1fvj_I-74" target="-EJJUSHEmiEM0p1fvj_I-75">
          <mxGeometry relative="1" as="geometry" />
        </mxCell>
        <mxCell id="-EJJUSHEmiEM0p1fvj_I-74" value="" style="rhombus;whiteSpace=wrap;html=1;" vertex="1" parent="WIyWlLk6GJQsqaUBKTNV-1">
          <mxGeometry x="50" y="920" width="50" height="60" as="geometry" />
        </mxCell>
        <mxCell id="-EJJUSHEmiEM0p1fvj_I-75" value="Transaction history" style="shape=parallelogram;perimeter=parallelogramPerimeter;whiteSpace=wrap;html=1;fixedSize=1;" vertex="1" parent="WIyWlLk6GJQsqaUBKTNV-1">
          <mxGeometry x="10" y="1010" width="120" height="40" as="geometry" />
        </mxCell>
        <mxCell id="-EJJUSHEmiEM0p1fvj_I-76" value="Check savings" style="shape=parallelogram;perimeter=parallelogramPerimeter;whiteSpace=wrap;html=1;fixedSize=1;" vertex="1" parent="WIyWlLk6GJQsqaUBKTNV-1">
          <mxGeometry x="140" y="990" width="120" height="40" as="geometry" />
        </mxCell>
        <mxCell id="-EJJUSHEmiEM0p1fvj_I-83" style="edgeStyle=orthogonalEdgeStyle;rounded=0;orthogonalLoop=1;jettySize=auto;html=1;exitX=0.5;exitY=1;exitDx=0;exitDy=0;" edge="1" parent="WIyWlLk6GJQsqaUBKTNV-1" source="-EJJUSHEmiEM0p1fvj_I-1" target="-EJJUSHEmiEM0p1fvj_I-1">
          <mxGeometry relative="1" as="geometry" />
        </mxCell>
        <mxCell id="-EJJUSHEmiEM0p1fvj_I-86" style="edgeStyle=orthogonalEdgeStyle;rounded=0;orthogonalLoop=1;jettySize=auto;html=1;exitX=0.5;exitY=1;exitDx=0;exitDy=0;" edge="1" parent="WIyWlLk6GJQsqaUBKTNV-1" source="-EJJUSHEmiEM0p1fvj_I-1" target="-EJJUSHEmiEM0p1fvj_I-1">
          <mxGeometry relative="1" as="geometry" />
        </mxCell>
        <mxCell id="-EJJUSHEmiEM0p1fvj_I-121" style="edgeStyle=orthogonalEdgeStyle;rounded=0;orthogonalLoop=1;jettySize=auto;html=1;exitX=0;exitY=0.25;exitDx=0;exitDy=0;" edge="1" parent="WIyWlLk6GJQsqaUBKTNV-1" source="-EJJUSHEmiEM0p1fvj_I-93">
          <mxGeometry relative="1" as="geometry">
            <mxPoint x="310" y="938" as="targetPoint" />
          </mxGeometry>
        </mxCell>
        <mxCell id="-EJJUSHEmiEM0p1fvj_I-93" value="A/c details" style="shape=process;whiteSpace=wrap;html=1;backgroundOutline=1;" vertex="1" parent="WIyWlLk6GJQsqaUBKTNV-1">
          <mxGeometry x="350" y="930" width="100" height="30" as="geometry" />
        </mxCell>
        <mxCell id="-EJJUSHEmiEM0p1fvj_I-119" style="edgeStyle=orthogonalEdgeStyle;rounded=0;orthogonalLoop=1;jettySize=auto;html=1;exitX=0.25;exitY=1;exitDx=0;exitDy=0;" edge="1" parent="WIyWlLk6GJQsqaUBKTNV-1" source="-EJJUSHEmiEM0p1fvj_I-95" target="-EJJUSHEmiEM0p1fvj_I-102">
          <mxGeometry relative="1" as="geometry" />
        </mxCell>
        <mxCell id="-EJJUSHEmiEM0p1fvj_I-95" value="Deduct from a/c" style="shape=parallelogram;perimeter=parallelogramPerimeter;whiteSpace=wrap;html=1;fixedSize=1;" vertex="1" parent="WIyWlLk6GJQsqaUBKTNV-1">
          <mxGeometry x="270" y="970" width="120" height="30" as="geometry" />
        </mxCell>
        <mxCell id="-EJJUSHEmiEM0p1fvj_I-120" style="edgeStyle=orthogonalEdgeStyle;rounded=0;orthogonalLoop=1;jettySize=auto;html=1;exitX=0;exitY=0.25;exitDx=0;exitDy=0;" edge="1" parent="WIyWlLk6GJQsqaUBKTNV-1" source="-EJJUSHEmiEM0p1fvj_I-97">
          <mxGeometry relative="1" as="geometry">
            <mxPoint x="300" y="1028" as="targetPoint" />
          </mxGeometry>
        </mxCell>
        <mxCell id="-EJJUSHEmiEM0p1fvj_I-97" value="A/c detail" style="shape=process;whiteSpace=wrap;html=1;backgroundOutline=1;" vertex="1" parent="WIyWlLk6GJQsqaUBKTNV-1">
          <mxGeometry x="349" y="1020" width="110" height="30" as="geometry" />
        </mxCell>
        <mxCell id="-EJJUSHEmiEM0p1fvj_I-99" style="edgeStyle=orthogonalEdgeStyle;rounded=0;orthogonalLoop=1;jettySize=auto;html=1;exitX=0.5;exitY=1;exitDx=0;exitDy=0;" edge="1" parent="WIyWlLk6GJQsqaUBKTNV-1" source="-EJJUSHEmiEM0p1fvj_I-97" target="-EJJUSHEmiEM0p1fvj_I-97">
          <mxGeometry relative="1" as="geometry" />
        </mxCell>
        <mxCell id="-EJJUSHEmiEM0p1fvj_I-100" style="edgeStyle=orthogonalEdgeStyle;rounded=0;orthogonalLoop=1;jettySize=auto;html=1;exitX=0.5;exitY=1;exitDx=0;exitDy=0;" edge="1" parent="WIyWlLk6GJQsqaUBKTNV-1" source="-EJJUSHEmiEM0p1fvj_I-97" target="-EJJUSHEmiEM0p1fvj_I-97">
          <mxGeometry relative="1" as="geometry" />
        </mxCell>
        <mxCell id="-EJJUSHEmiEM0p1fvj_I-102" value="Display bill paid&lt;br&gt;a/c bal" style="shape=parallelogram;perimeter=parallelogramPerimeter;whiteSpace=wrap;html=1;fixedSize=1;" vertex="1" parent="WIyWlLk6GJQsqaUBKTNV-1">
          <mxGeometry x="240" y="1070" width="120" height="40" as="geometry" />
        </mxCell>
        <mxCell id="-EJJUSHEmiEM0p1fvj_I-113" value="STOP" style="ellipse;whiteSpace=wrap;html=1;" vertex="1" parent="WIyWlLk6GJQsqaUBKTNV-1">
          <mxGeometry x="700" y="1340" width="120" height="60" as="geometry" />
        </mxCell>
        <mxCell id="-EJJUSHEmiEM0p1fvj_I-130" value="" style="endArrow=none;html=1;rounded=0;" edge="1" parent="WIyWlLk6GJQsqaUBKTNV-1">
          <mxGeometry width="50" height="50" relative="1" as="geometry">
            <mxPoint x="70" y="1410" as="sourcePoint" />
            <mxPoint x="70" y="1050" as="targetPoint" />
          </mxGeometry>
        </mxCell>
        <mxCell id="-EJJUSHEmiEM0p1fvj_I-131" value="" style="endArrow=none;html=1;rounded=0;" edge="1" parent="WIyWlLk6GJQsqaUBKTNV-1">
          <mxGeometry width="50" height="50" relative="1" as="geometry">
            <mxPoint x="190" y="1390" as="sourcePoint" />
            <mxPoint x="190" y="1030" as="targetPoint" />
          </mxGeometry>
        </mxCell>
        <mxCell id="-EJJUSHEmiEM0p1fvj_I-139" value="" style="endArrow=none;html=1;rounded=0;exitX=1.007;exitY=0.218;exitDx=0;exitDy=0;exitPerimeter=0;" edge="1" parent="WIyWlLk6GJQsqaUBKTNV-1" source="-EJJUSHEmiEM0p1fvj_I-25">
          <mxGeometry width="50" height="50" relative="1" as="geometry">
            <mxPoint x="400" y="710" as="sourcePoint" />
            <mxPoint x="780" y="710" as="targetPoint" />
            <Array as="points">
              <mxPoint x="590" y="710" />
            </Array>
          </mxGeometry>
        </mxCell>
        <mxCell id="-EJJUSHEmiEM0p1fvj_I-141" value="3" style="endArrow=classic;html=1;rounded=0;" edge="1" parent="WIyWlLk6GJQsqaUBKTNV-1">
          <mxGeometry width="50" height="50" relative="1" as="geometry">
            <mxPoint x="780" y="710" as="sourcePoint" />
            <mxPoint x="780" y="790" as="targetPoint" />
          </mxGeometry>
        </mxCell>
        <mxCell id="-EJJUSHEmiEM0p1fvj_I-161" style="edgeStyle=orthogonalEdgeStyle;rounded=0;orthogonalLoop=1;jettySize=auto;html=1;exitX=0.25;exitY=1;exitDx=0;exitDy=0;" edge="1" parent="WIyWlLk6GJQsqaUBKTNV-1" source="-EJJUSHEmiEM0p1fvj_I-142">
          <mxGeometry relative="1" as="geometry">
            <mxPoint x="760.4545454545453" y="870" as="targetPoint" />
          </mxGeometry>
        </mxCell>
        <mxCell id="-EJJUSHEmiEM0p1fvj_I-142" value="Enter Receipient details" style="shape=parallelogram;perimeter=parallelogramPerimeter;whiteSpace=wrap;html=1;fixedSize=1;" vertex="1" parent="WIyWlLk6GJQsqaUBKTNV-1">
          <mxGeometry x="730" y="790" width="120" height="50" as="geometry" />
        </mxCell>
        <mxCell id="-EJJUSHEmiEM0p1fvj_I-163" style="edgeStyle=orthogonalEdgeStyle;rounded=0;orthogonalLoop=1;jettySize=auto;html=1;exitX=0.5;exitY=1;exitDx=0;exitDy=0;" edge="1" parent="WIyWlLk6GJQsqaUBKTNV-1" source="-EJJUSHEmiEM0p1fvj_I-144">
          <mxGeometry relative="1" as="geometry">
            <mxPoint x="760.4545454545453" y="940" as="targetPoint" />
          </mxGeometry>
        </mxCell>
        <mxCell id="-EJJUSHEmiEM0p1fvj_I-144" value="" style="rhombus;whiteSpace=wrap;html=1;" vertex="1" parent="WIyWlLk6GJQsqaUBKTNV-1">
          <mxGeometry x="740" y="870" width="40" height="30" as="geometry" />
        </mxCell>
        <mxCell id="-EJJUSHEmiEM0p1fvj_I-155" style="edgeStyle=orthogonalEdgeStyle;rounded=0;orthogonalLoop=1;jettySize=auto;html=1;exitX=0.5;exitY=1;exitDx=0;exitDy=0;entryX=0.5;entryY=0;entryDx=0;entryDy=0;" edge="1" parent="WIyWlLk6GJQsqaUBKTNV-1" source="-EJJUSHEmiEM0p1fvj_I-145" target="-EJJUSHEmiEM0p1fvj_I-146">
          <mxGeometry relative="1" as="geometry" />
        </mxCell>
        <mxCell id="-EJJUSHEmiEM0p1fvj_I-145" value="Amount" style="shape=parallelogram;perimeter=parallelogramPerimeter;whiteSpace=wrap;html=1;fixedSize=1;" vertex="1" parent="WIyWlLk6GJQsqaUBKTNV-1">
          <mxGeometry x="735" y="945" width="90" height="30" as="geometry" />
        </mxCell>
        <mxCell id="-EJJUSHEmiEM0p1fvj_I-157" style="edgeStyle=orthogonalEdgeStyle;rounded=0;orthogonalLoop=1;jettySize=auto;html=1;exitX=0.5;exitY=1;exitDx=0;exitDy=0;entryX=0.595;entryY=-0.041;entryDx=0;entryDy=0;entryPerimeter=0;" edge="1" parent="WIyWlLk6GJQsqaUBKTNV-1" source="-EJJUSHEmiEM0p1fvj_I-146" target="-EJJUSHEmiEM0p1fvj_I-147">
          <mxGeometry relative="1" as="geometry" />
        </mxCell>
        <mxCell id="-EJJUSHEmiEM0p1fvj_I-146" value="" style="rhombus;whiteSpace=wrap;html=1;" vertex="1" parent="WIyWlLk6GJQsqaUBKTNV-1">
          <mxGeometry x="760" y="1020" width="40" height="40" as="geometry" />
        </mxCell>
        <mxCell id="-EJJUSHEmiEM0p1fvj_I-158" style="edgeStyle=orthogonalEdgeStyle;rounded=0;orthogonalLoop=1;jettySize=auto;html=1;exitX=0.5;exitY=1;exitDx=0;exitDy=0;entryX=0.565;entryY=-0.033;entryDx=0;entryDy=0;entryPerimeter=0;" edge="1" parent="WIyWlLk6GJQsqaUBKTNV-1" source="-EJJUSHEmiEM0p1fvj_I-147" target="-EJJUSHEmiEM0p1fvj_I-148">
          <mxGeometry relative="1" as="geometry" />
        </mxCell>
        <mxCell id="-EJJUSHEmiEM0p1fvj_I-147" value="Deduct from A/c" style="rounded=0;whiteSpace=wrap;html=1;" vertex="1" parent="WIyWlLk6GJQsqaUBKTNV-1">
          <mxGeometry x="720" y="1090" width="100" height="40" as="geometry" />
        </mxCell>
        <mxCell id="-EJJUSHEmiEM0p1fvj_I-197" style="edgeStyle=orthogonalEdgeStyle;rounded=0;orthogonalLoop=1;jettySize=auto;html=1;exitX=0.5;exitY=1;exitDx=0;exitDy=0;" edge="1" parent="WIyWlLk6GJQsqaUBKTNV-1" source="-EJJUSHEmiEM0p1fvj_I-148" target="-EJJUSHEmiEM0p1fvj_I-113">
          <mxGeometry relative="1" as="geometry" />
        </mxCell>
        <mxCell id="-EJJUSHEmiEM0p1fvj_I-148" value="Display Receipient&lt;br&gt;A/c Bal" style="shape=parallelogram;perimeter=parallelogramPerimeter;whiteSpace=wrap;html=1;fixedSize=1;" vertex="1" parent="WIyWlLk6GJQsqaUBKTNV-1">
          <mxGeometry x="680" y="1180" width="160" height="50" as="geometry" />
        </mxCell>
        <mxCell id="-EJJUSHEmiEM0p1fvj_I-164" style="edgeStyle=orthogonalEdgeStyle;rounded=0;orthogonalLoop=1;jettySize=auto;html=1;exitX=0;exitY=0.25;exitDx=0;exitDy=0;" edge="1" parent="WIyWlLk6GJQsqaUBKTNV-1" source="-EJJUSHEmiEM0p1fvj_I-149">
          <mxGeometry relative="1" as="geometry">
            <mxPoint x="760" y="857.4545454545453" as="targetPoint" />
          </mxGeometry>
        </mxCell>
        <mxCell id="-EJJUSHEmiEM0p1fvj_I-149" value="database" style="shape=process;whiteSpace=wrap;html=1;backgroundOutline=1;" vertex="1" parent="WIyWlLk6GJQsqaUBKTNV-1">
          <mxGeometry x="840" y="850" width="120" height="30" as="geometry" />
        </mxCell>
        <mxCell id="-EJJUSHEmiEM0p1fvj_I-154" style="edgeStyle=orthogonalEdgeStyle;rounded=0;orthogonalLoop=1;jettySize=auto;html=1;exitX=0;exitY=0.5;exitDx=0;exitDy=0;" edge="1" parent="WIyWlLk6GJQsqaUBKTNV-1" source="-EJJUSHEmiEM0p1fvj_I-150">
          <mxGeometry relative="1" as="geometry">
            <mxPoint x="780" y="994.7272727272725" as="targetPoint" />
          </mxGeometry>
        </mxCell>
        <mxCell id="-EJJUSHEmiEM0p1fvj_I-150" value="A/c details" style="shape=process;whiteSpace=wrap;html=1;backgroundOutline=1;" vertex="1" parent="WIyWlLk6GJQsqaUBKTNV-1">
          <mxGeometry x="830" y="980" width="120" height="30" as="geometry" />
        </mxCell>
        <mxCell id="-EJJUSHEmiEM0p1fvj_I-159" style="edgeStyle=orthogonalEdgeStyle;rounded=0;orthogonalLoop=1;jettySize=auto;html=1;exitX=0;exitY=0.5;exitDx=0;exitDy=0;" edge="1" parent="WIyWlLk6GJQsqaUBKTNV-1" source="-EJJUSHEmiEM0p1fvj_I-151">
          <mxGeometry relative="1" as="geometry">
            <mxPoint x="770" y="1144.7272727272725" as="targetPoint" />
          </mxGeometry>
        </mxCell>
        <mxCell id="-EJJUSHEmiEM0p1fvj_I-151" value="A/c details" style="shape=process;whiteSpace=wrap;html=1;backgroundOutline=1;" vertex="1" parent="WIyWlLk6GJQsqaUBKTNV-1">
          <mxGeometry x="860" y="1130" width="120" height="30" as="geometry" />
        </mxCell>
        <mxCell id="-EJJUSHEmiEM0p1fvj_I-174" style="edgeStyle=orthogonalEdgeStyle;rounded=0;orthogonalLoop=1;jettySize=auto;html=1;exitX=0.25;exitY=1;exitDx=0;exitDy=0;" edge="1" parent="WIyWlLk6GJQsqaUBKTNV-1" source="-EJJUSHEmiEM0p1fvj_I-166" target="-EJJUSHEmiEM0p1fvj_I-170">
          <mxGeometry relative="1" as="geometry" />
        </mxCell>
        <mxCell id="-EJJUSHEmiEM0p1fvj_I-166" value="loan limit" style="shape=parallelogram;perimeter=parallelogramPerimeter;whiteSpace=wrap;html=1;fixedSize=1;" vertex="1" parent="WIyWlLk6GJQsqaUBKTNV-1">
          <mxGeometry x="1000" y="760" width="120" height="60" as="geometry" />
        </mxCell>
        <mxCell id="-EJJUSHEmiEM0p1fvj_I-181" style="edgeStyle=orthogonalEdgeStyle;rounded=0;orthogonalLoop=1;jettySize=auto;html=1;exitX=0.5;exitY=1;exitDx=0;exitDy=0;entryX=0.5;entryY=0;entryDx=0;entryDy=0;" edge="1" parent="WIyWlLk6GJQsqaUBKTNV-1" source="-EJJUSHEmiEM0p1fvj_I-167" target="-EJJUSHEmiEM0p1fvj_I-177">
          <mxGeometry relative="1" as="geometry" />
        </mxCell>
        <mxCell id="-EJJUSHEmiEM0p1fvj_I-167" value="select line" style="shape=parallelogram;perimeter=parallelogramPerimeter;whiteSpace=wrap;html=1;fixedSize=1;" vertex="1" parent="WIyWlLk6GJQsqaUBKTNV-1">
          <mxGeometry x="1230" y="750" width="120" height="50" as="geometry" />
        </mxCell>
        <mxCell id="-EJJUSHEmiEM0p1fvj_I-168" value="click on the system link for support" style="shape=parallelogram;perimeter=parallelogramPerimeter;whiteSpace=wrap;html=1;fixedSize=1;" vertex="1" parent="WIyWlLk6GJQsqaUBKTNV-1">
          <mxGeometry x="1410" y="770" width="120" height="60" as="geometry" />
        </mxCell>
        <mxCell id="-EJJUSHEmiEM0p1fvj_I-175" style="edgeStyle=orthogonalEdgeStyle;rounded=0;orthogonalLoop=1;jettySize=auto;html=1;exitX=1;exitY=0.5;exitDx=0;exitDy=0;" edge="1" parent="WIyWlLk6GJQsqaUBKTNV-1" source="-EJJUSHEmiEM0p1fvj_I-170">
          <mxGeometry relative="1" as="geometry">
            <mxPoint x="1129.9999999999998" y="884.7272727272725" as="targetPoint" />
          </mxGeometry>
        </mxCell>
        <mxCell id="-EJJUSHEmiEM0p1fvj_I-176" style="edgeStyle=orthogonalEdgeStyle;rounded=0;orthogonalLoop=1;jettySize=auto;html=1;exitX=0.5;exitY=1;exitDx=0;exitDy=0;entryX=0.413;entryY=-0.018;entryDx=0;entryDy=0;entryPerimeter=0;" edge="1" parent="WIyWlLk6GJQsqaUBKTNV-1" source="-EJJUSHEmiEM0p1fvj_I-170" target="-EJJUSHEmiEM0p1fvj_I-171">
          <mxGeometry relative="1" as="geometry" />
        </mxCell>
        <mxCell id="-EJJUSHEmiEM0p1fvj_I-170" value="" style="rhombus;whiteSpace=wrap;html=1;" vertex="1" parent="WIyWlLk6GJQsqaUBKTNV-1">
          <mxGeometry x="1000" y="860" width="60" height="50" as="geometry" />
        </mxCell>
        <mxCell id="-EJJUSHEmiEM0p1fvj_I-171" value="borrow loan" style="shape=parallelogram;perimeter=parallelogramPerimeter;whiteSpace=wrap;html=1;fixedSize=1;" vertex="1" parent="WIyWlLk6GJQsqaUBKTNV-1">
          <mxGeometry x="980" y="950" width="120" height="40" as="geometry" />
        </mxCell>
        <mxCell id="-EJJUSHEmiEM0p1fvj_I-173" value="Not allowed" style="shape=parallelogram;perimeter=parallelogramPerimeter;whiteSpace=wrap;html=1;fixedSize=1;" vertex="1" parent="WIyWlLk6GJQsqaUBKTNV-1">
          <mxGeometry x="1120" y="867.5" width="110" height="32.5" as="geometry" />
        </mxCell>
        <mxCell id="-EJJUSHEmiEM0p1fvj_I-182" style="edgeStyle=orthogonalEdgeStyle;rounded=0;orthogonalLoop=1;jettySize=auto;html=1;exitX=0.5;exitY=1;exitDx=0;exitDy=0;entryX=0.5;entryY=0;entryDx=0;entryDy=0;" edge="1" parent="WIyWlLk6GJQsqaUBKTNV-1" source="-EJJUSHEmiEM0p1fvj_I-177" target="-EJJUSHEmiEM0p1fvj_I-179">
          <mxGeometry relative="1" as="geometry" />
        </mxCell>
        <mxCell id="-EJJUSHEmiEM0p1fvj_I-177" value="select self or other" style="shape=parallelogram;perimeter=parallelogramPerimeter;whiteSpace=wrap;html=1;fixedSize=1;" vertex="1" parent="WIyWlLk6GJQsqaUBKTNV-1">
          <mxGeometry x="1230" y="840" width="120" height="40" as="geometry" />
        </mxCell>
        <mxCell id="-EJJUSHEmiEM0p1fvj_I-183" style="edgeStyle=orthogonalEdgeStyle;rounded=0;orthogonalLoop=1;jettySize=auto;html=1;exitX=0.5;exitY=1;exitDx=0;exitDy=0;entryX=0.5;entryY=0;entryDx=0;entryDy=0;" edge="1" parent="WIyWlLk6GJQsqaUBKTNV-1" source="-EJJUSHEmiEM0p1fvj_I-179" target="-EJJUSHEmiEM0p1fvj_I-180">
          <mxGeometry relative="1" as="geometry" />
        </mxCell>
        <mxCell id="-EJJUSHEmiEM0p1fvj_I-179" value="phone number" style="rounded=0;whiteSpace=wrap;html=1;" vertex="1" parent="WIyWlLk6GJQsqaUBKTNV-1">
          <mxGeometry x="1230" y="915" width="120" height="35" as="geometry" />
        </mxCell>
        <mxCell id="-EJJUSHEmiEM0p1fvj_I-180" value="submit" style="shape=parallelogram;perimeter=parallelogramPerimeter;whiteSpace=wrap;html=1;fixedSize=1;" vertex="1" parent="WIyWlLk6GJQsqaUBKTNV-1">
          <mxGeometry x="1230" y="990" width="120" height="40" as="geometry" />
        </mxCell>
        <mxCell id="-EJJUSHEmiEM0p1fvj_I-185" value="" style="endArrow=none;html=1;rounded=0;" edge="1" parent="WIyWlLk6GJQsqaUBKTNV-1">
          <mxGeometry width="50" height="50" relative="1" as="geometry">
            <mxPoint x="400" y="700" as="sourcePoint" />
            <mxPoint x="1060" y="700" as="targetPoint" />
          </mxGeometry>
        </mxCell>
        <mxCell id="-EJJUSHEmiEM0p1fvj_I-186" value="" style="endArrow=none;html=1;rounded=0;" edge="1" parent="WIyWlLk6GJQsqaUBKTNV-1">
          <mxGeometry width="50" height="50" relative="1" as="geometry">
            <mxPoint x="400" y="690" as="sourcePoint" />
            <mxPoint x="1290" y="690" as="targetPoint" />
          </mxGeometry>
        </mxCell>
        <mxCell id="-EJJUSHEmiEM0p1fvj_I-187" value="" style="endArrow=none;html=1;rounded=0;" edge="1" parent="WIyWlLk6GJQsqaUBKTNV-1">
          <mxGeometry width="50" height="50" relative="1" as="geometry">
            <mxPoint x="400" y="680" as="sourcePoint" />
            <mxPoint x="1480" y="680" as="targetPoint" />
          </mxGeometry>
        </mxCell>
        <mxCell id="-EJJUSHEmiEM0p1fvj_I-188" value="6" style="endArrow=classic;html=1;rounded=0;entryX=0.5;entryY=0;entryDx=0;entryDy=0;" edge="1" parent="WIyWlLk6GJQsqaUBKTNV-1" target="-EJJUSHEmiEM0p1fvj_I-166">
          <mxGeometry width="50" height="50" relative="1" as="geometry">
            <mxPoint x="1060" y="700" as="sourcePoint" />
            <mxPoint x="1110" y="650" as="targetPoint" />
          </mxGeometry>
        </mxCell>
        <mxCell id="-EJJUSHEmiEM0p1fvj_I-189" value="7" style="endArrow=classic;html=1;rounded=0;" edge="1" parent="WIyWlLk6GJQsqaUBKTNV-1">
          <mxGeometry width="50" height="50" relative="1" as="geometry">
            <mxPoint x="1290" y="690" as="sourcePoint" />
            <mxPoint x="1290" y="750" as="targetPoint" />
          </mxGeometry>
        </mxCell>
        <mxCell id="-EJJUSHEmiEM0p1fvj_I-190" value="8" style="endArrow=classic;html=1;rounded=0;entryX=0.583;entryY=0;entryDx=0;entryDy=0;entryPerimeter=0;" edge="1" parent="WIyWlLk6GJQsqaUBKTNV-1" target="-EJJUSHEmiEM0p1fvj_I-168">
          <mxGeometry width="50" height="50" relative="1" as="geometry">
            <mxPoint x="1480" y="680" as="sourcePoint" />
            <mxPoint x="1530" y="630" as="targetPoint" />
          </mxGeometry>
        </mxCell>
        <mxCell id="-EJJUSHEmiEM0p1fvj_I-192" value="" style="endArrow=none;html=1;rounded=0;" edge="1" parent="WIyWlLk6GJQsqaUBKTNV-1">
          <mxGeometry width="50" height="50" relative="1" as="geometry">
            <mxPoint x="1460" y="1400" as="sourcePoint" />
            <mxPoint x="1460" y="830" as="targetPoint" />
          </mxGeometry>
        </mxCell>
        <mxCell id="-EJJUSHEmiEM0p1fvj_I-194" value="" style="endArrow=none;html=1;rounded=0;" edge="1" parent="WIyWlLk6GJQsqaUBKTNV-1">
          <mxGeometry width="50" height="50" relative="1" as="geometry">
            <mxPoint x="1280" y="1380" as="sourcePoint" />
            <mxPoint x="1280" y="1030" as="targetPoint" />
          </mxGeometry>
        </mxCell>
        <mxCell id="-EJJUSHEmiEM0p1fvj_I-195" value="" style="endArrow=none;html=1;rounded=0;" edge="1" parent="WIyWlLk6GJQsqaUBKTNV-1">
          <mxGeometry width="50" height="50" relative="1" as="geometry">
            <mxPoint x="1040" y="1350" as="sourcePoint" />
            <mxPoint x="1040" y="990" as="targetPoint" />
          </mxGeometry>
        </mxCell>
        <mxCell id="-EJJUSHEmiEM0p1fvj_I-196" value="" style="endArrow=none;html=1;rounded=0;" edge="1" parent="WIyWlLk6GJQsqaUBKTNV-1">
          <mxGeometry width="50" height="50" relative="1" as="geometry">
            <mxPoint x="1170" y="1370" as="sourcePoint" />
            <mxPoint x="1170" y="900" as="targetPoint" />
          </mxGeometry>
        </mxCell>
        <mxCell id="-EJJUSHEmiEM0p1fvj_I-198" value="" style="endArrow=none;html=1;rounded=0;" edge="1" parent="WIyWlLk6GJQsqaUBKTNV-1">
          <mxGeometry width="50" height="50" relative="1" as="geometry">
            <mxPoint x="510" y="1350" as="sourcePoint" />
            <mxPoint x="510" y="990" as="targetPoint" />
          </mxGeometry>
        </mxCell>
        <mxCell id="-EJJUSHEmiEM0p1fvj_I-199" value="" style="endArrow=none;html=1;rounded=0;" edge="1" parent="WIyWlLk6GJQsqaUBKTNV-1">
          <mxGeometry width="50" height="50" relative="1" as="geometry">
            <mxPoint x="290" y="1370" as="sourcePoint" />
            <mxPoint x="290" y="1110" as="targetPoint" />
          </mxGeometry>
        </mxCell>
        <mxCell id="-EJJUSHEmiEM0p1fvj_I-201" value="" style="endArrow=classic;html=1;rounded=0;entryX=0.917;entryY=0.167;entryDx=0;entryDy=0;entryPerimeter=0;" edge="1" parent="WIyWlLk6GJQsqaUBKTNV-1" target="-EJJUSHEmiEM0p1fvj_I-113">
          <mxGeometry width="50" height="50" relative="1" as="geometry">
            <mxPoint x="1040" y="1350" as="sourcePoint" />
            <mxPoint x="1090" y="1300" as="targetPoint" />
          </mxGeometry>
        </mxCell>
        <mxCell id="-EJJUSHEmiEM0p1fvj_I-203" value="" style="endArrow=classic;html=1;rounded=0;entryX=1;entryY=0.5;entryDx=0;entryDy=0;" edge="1" parent="WIyWlLk6GJQsqaUBKTNV-1" target="-EJJUSHEmiEM0p1fvj_I-113">
          <mxGeometry width="50" height="50" relative="1" as="geometry">
            <mxPoint x="1170" y="1370" as="sourcePoint" />
            <mxPoint x="1220" y="1320" as="targetPoint" />
          </mxGeometry>
        </mxCell>
        <mxCell id="-EJJUSHEmiEM0p1fvj_I-204" value="" style="endArrow=classic;html=1;rounded=0;entryX=1.004;entryY=0.655;entryDx=0;entryDy=0;entryPerimeter=0;" edge="1" parent="WIyWlLk6GJQsqaUBKTNV-1" target="-EJJUSHEmiEM0p1fvj_I-113">
          <mxGeometry width="50" height="50" relative="1" as="geometry">
            <mxPoint x="1280" y="1380" as="sourcePoint" />
            <mxPoint x="1330" y="1330" as="targetPoint" />
          </mxGeometry>
        </mxCell>
        <mxCell id="-EJJUSHEmiEM0p1fvj_I-205" value="" style="endArrow=classic;html=1;rounded=0;entryX=0.966;entryY=0.806;entryDx=0;entryDy=0;entryPerimeter=0;" edge="1" parent="WIyWlLk6GJQsqaUBKTNV-1" target="-EJJUSHEmiEM0p1fvj_I-113">
          <mxGeometry width="50" height="50" relative="1" as="geometry">
            <mxPoint x="1460" y="1400" as="sourcePoint" />
            <mxPoint x="830" y="1390" as="targetPoint" />
          </mxGeometry>
        </mxCell>
        <mxCell id="-EJJUSHEmiEM0p1fvj_I-206" value="" style="endArrow=classic;html=1;rounded=0;entryX=0.083;entryY=0.167;entryDx=0;entryDy=0;entryPerimeter=0;" edge="1" parent="WIyWlLk6GJQsqaUBKTNV-1" target="-EJJUSHEmiEM0p1fvj_I-113">
          <mxGeometry width="50" height="50" relative="1" as="geometry">
            <mxPoint x="510" y="1350" as="sourcePoint" />
            <mxPoint x="560" y="1300" as="targetPoint" />
          </mxGeometry>
        </mxCell>
        <mxCell id="-EJJUSHEmiEM0p1fvj_I-207" value="" style="endArrow=classic;html=1;rounded=0;entryX=0.057;entryY=0.806;entryDx=0;entryDy=0;entryPerimeter=0;" edge="1" parent="WIyWlLk6GJQsqaUBKTNV-1" target="-EJJUSHEmiEM0p1fvj_I-113">
          <mxGeometry width="50" height="50" relative="1" as="geometry">
            <mxPoint x="190" y="1390" as="sourcePoint" />
            <mxPoint x="240" y="1340" as="targetPoint" />
          </mxGeometry>
        </mxCell>
        <mxCell id="-EJJUSHEmiEM0p1fvj_I-208" value="" style="endArrow=classic;html=1;rounded=0;entryX=0;entryY=0.5;entryDx=0;entryDy=0;" edge="1" parent="WIyWlLk6GJQsqaUBKTNV-1" target="-EJJUSHEmiEM0p1fvj_I-113">
          <mxGeometry width="50" height="50" relative="1" as="geometry">
            <mxPoint x="290" y="1370" as="sourcePoint" />
            <mxPoint x="340" y="1320" as="targetPoint" />
          </mxGeometry>
        </mxCell>
        <mxCell id="-EJJUSHEmiEM0p1fvj_I-209" value="" style="endArrow=classic;html=1;rounded=0;" edge="1" parent="WIyWlLk6GJQsqaUBKTNV-1">
          <mxGeometry width="50" height="50" relative="1" as="geometry">
            <mxPoint x="70" y="1410" as="sourcePoint" />
            <mxPoint x="700.3992558380078" y="1399.9951156035938" as="targetPoint" />
          </mxGeometry>
        </mxCell>
      </root>
    </mxGraphModel>
  </diagram>
</mxfile>
